<?xml version="1.0" encoding="utf-8"?>
<!-- Generator: Adobe Illustrator 26.5.0, SVG Export Plug-In . SVG Version: 6.00 Build 0)  -->
<svg version="1.1" id="Layer_1" xmlns="http://www.w3.org/2000/svg" xmlns:xlink="http://www.w3.org/1999/xlink" x="0px" y="0px"
	 viewBox="0 0 303.9 304.6" style="enable-background:new 0 0 303.9 304.6;" xml:space="preserve">
<style type="text/css">
	.st0{fill:#FFFFFF;}
</style>
<g>
	<path d="M268.9,172.5c4.9,4.5,9.9,8.4,14.1,13.1c14.2,16.2,19.8,35.1,16.5,56.4c-3.4,22.1-15.2,38.7-34.4,49.7
		c-13.6,7.8-28.3,10.3-43.9,7.9c-19.7-3.1-35-13.2-46.4-29.3c-1-1.4-1.7-1.5-3.3-1.2c-43.8,10-83.8,2.2-119-26.1
		C26.4,222,10.6,194.4,4.7,161.5C-7.5,93.5,32.3,33.3,88.5,11.7c77.4-29.7,163.3,14,182,98.3c4.6,20.7,3.9,41.4-1.5,61.9
		C268.9,172.3,268.8,172.7,268.9,172.5z M165.4,250.4c-6.2-25.8-1-48.8,17.7-67.6c18.7-18.8,41.7-24.2,67.3-17.9
		c8.8-32,3.2-86.3-44.3-120.1c-47.1-33.5-104.7-29.9-146,7.5C17.3,91,11.5,152.3,37.8,195.8C67.5,245.1,119.2,261.4,165.4,250.4z
		 M285.5,231.4c0-29.8-24.4-54.3-54-54.1c-29.6,0.1-53.7,24.4-53.8,54.1c-0.1,29.9,24.2,54.2,54.2,54.2
		C261.4,285.5,285.5,261.1,285.5,231.4z"/>
	<path class="st0" d="M165.4,250.4c-46.2,11-97.9-5.3-127.6-54.6C11.5,152.3,17.3,91,60.1,52.2c41.2-37.4,98.8-41,146-7.5
		c47.5,33.8,53.1,88.1,44.3,120.1c-25.7-6.3-48.6-0.9-67.3,17.9C164.3,201.6,159.2,224.6,165.4,250.4z M170.7,145
		c-0.7-0.2-0.8-0.3-0.9-0.3c-12.8,0-25.5-0.1-38.3,0c-0.9,0-2,0.9-2.5,1.6c-15,22.7-30,45.4-44.9,68.1c-0.4,0.6-0.8,1.3-1.2,1.9
		c0.2,0.2,0.4,0.4,0.6,0.6C112.4,192.9,141.4,169,170.7,145z M193,59.5c-0.2-0.2-0.4-0.4-0.7-0.7c-29,23.9-58,47.7-86.9,71.6
		c0.1,0.2,0.2,0.4,0.2,0.6c0.8,0,1.5,0,2.3,0c11.8,0,23.6,0,35.5,0.1c1.7,0,2.7-0.5,3.6-2c10.4-15.8,20.8-31.6,31.2-47.4
		C183.2,74.4,188.1,67,193,59.5z"/>
	<path class="st0" d="M285.5,231.4c0,29.8-24.1,54.1-53.6,54.2c-29.9,0-54.3-24.3-54.2-54.2c0.1-29.7,24.2-54,53.8-54.1
		C261.1,177.1,285.5,201.5,285.5,231.4z M233.8,257c9.7,0,19.1,0,28.5,0c0-8.1,0-16.1,0-24.1c-9.6,0-19,0-28.5,0
		C233.8,241,233.8,248.9,233.8,257z M228.8,257.1c0-8.2,0-16.2,0-24.2c-9.4,0-18.7,0-28,0c0,8.2,0,16.2,0,24.2
		C210.2,257.1,219.5,257.1,228.8,257.1z M246.6,205.1c-9.6,0-19.1,0-28.4,0c0,8,0,15.9,0,23.6c9.6,0,19,0,28.4,0
		C246.6,220.9,246.6,213.1,246.6,205.1z"/>
	<path d="M170.7,145c-29.3,24.1-58.3,48-87.3,71.9c-0.2-0.2-0.4-0.4-0.6-0.6c0.4-0.6,0.8-1.3,1.2-1.9c15-22.7,29.9-45.4,44.9-68.1
		c0.5-0.8,1.7-1.6,2.5-1.6c12.8-0.1,25.5,0,38.3,0C169.9,144.6,170,144.7,170.7,145z"/>
	<path d="M193,59.5c-4.9,7.4-9.8,14.9-14.7,22.3c-10.4,15.8-20.9,31.5-31.2,47.4c-1,1.5-1.9,2-3.6,2c-11.8-0.1-23.6-0.1-35.5-0.1
		c-0.8,0-1.5,0-2.3,0c-0.1-0.2-0.2-0.4-0.2-0.6c29-23.9,58-47.7,86.9-71.6C192.6,59.1,192.8,59.3,193,59.5z"/>
	<path d="M233.8,257c0-8.1,0-16,0-24.1c9.5,0,19,0,28.5,0c0,8.1,0,16,0,24.1C252.9,257,243.5,257,233.8,257z"/>
	<path d="M228.8,257.1c-9.4,0-18.6,0-28,0c0-8,0-16,0-24.2c9.3,0,18.6,0,28,0C228.8,240.9,228.8,248.9,228.8,257.1z"/>
	<path d="M246.6,205.1c0,7.9,0,15.7,0,23.6c-9.5,0-18.9,0-28.4,0c0-7.8,0-15.6,0-23.6C227.5,205.1,236.9,205.1,246.6,205.1z"/>
</g>
</svg>
